<?xml version="1.0" encoding="iso-8859-1"?>
<!-- Uploaded to: SVG Repo, www.svgrepo.com, Generator: SVG Repo Mixer Tools -->
<svg height="800px" width="800px" version="1.1" id="Layer_1" xmlns="http://www.w3.org/2000/svg" xmlns:xlink="http://www.w3.org/1999/xlink" 
	 viewBox="0 0 473.931 473.931" xml:space="preserve">
<circle style="fill:#C7E3E7;" cx="236.966" cy="236.966" r="236.966"/>
<path style="fill:#F06668;" d="M236.954,54.858c-100.575,0-182.096,81.525-182.096,182.096s81.522,182.096,182.096,182.096
	c100.567,0,182.096-81.525,182.096-182.096S337.522,54.858,236.954,54.858z M236.954,365.102
	c-70.772,0-128.148-57.372-128.148-128.144S166.183,108.81,236.954,108.81s128.14,57.372,128.14,128.144
	S307.726,365.102,236.954,365.102z"/>
<path style="fill:#F2BE3E;" d="M236.954,73.406c-90.33,0-163.549,73.219-163.549,163.549c0,90.326,73.219,163.549,163.549,163.549
	c90.322,0,163.549-73.223,163.549-163.549S327.277,73.406,236.954,73.406z"/>
<path style="fill:#F4E028;" d="M236.954,90.027c-81.151,0-146.931,65.78-146.931,146.931c0,81.148,65.78,146.931,146.931,146.931
	s146.924-65.784,146.924-146.931C383.878,155.807,318.102,90.027,236.954,90.027z"/>
<path style="fill:#6CC077;" d="M236.954,104.182c-73.331,0-132.773,59.445-132.773,132.773s59.445,132.773,132.773,132.773
	s132.773-59.445,132.773-132.773S310.285,104.182,236.954,104.182z"/>
<path style="fill:#67B8CB;" d="M237.269,118.924c-65.013,0-117.72,52.706-117.72,117.72s52.706,117.72,117.72,117.72
	s117.719-52.706,117.719-117.72S302.282,118.924,237.269,118.924z"/>
<path style="fill:#9F77AA;" d="M236.954,134.112c-56.8,0-102.839,46.046-102.839,102.842s46.042,102.842,102.839,102.842
	s102.839-46.046,102.839-102.842S293.754,134.112,236.954,134.112z"/>
<path style="fill:#A2D4DE;" d="M238.833,154.321c-47.715,0-86.397,38.679-86.397,86.397c0,47.715,38.682,86.397,86.397,86.397
	c47.722,0,86.405-38.682,86.405-86.397C325.238,193,286.555,154.321,238.833,154.321z"/>
<path style="fill:#FFFFFF;" d="M238.833,154.321c-47.715,0-86.397,38.679-86.397,86.397c0,47.715,38.682,86.397,86.397,86.397
	c47.722,0,86.405-38.682,86.405-86.397C325.238,193,286.555,154.321,238.833,154.321z"/>
</svg>